<svg id="hangman" xmlns="http://www.w3.org/2000/svg" viewBox="0 0 1024.8 750.15">
  <defs>
    <style>
      .cls-1 {
        fill: #fff;
      }
    </style>
  </defs>
  <title>hangman_design</title>
  <g id="hangman_post">
    <path d="M791.5,139.5v87c0,7.72,12,7.73,12,0v-87c0-7.72-12-7.73-12,0Z" transform="translate(-198.55 -133.5)"/>
    <path d="M1044.67,133.5H797.5c-7.72,0-7.73,12,0,12h247.17c7.72,0,7.73-12,0-12Z" transform="translate(-198.55 -133.5)"/>
    <path d="M1050.67,569V192.44c0-17.34.75-34.87,0-52.21,0-.24,0-.49,0-.73,0-7.72-12-7.73-12,0V516.06c0,17.34-.76,34.87,0,52.21,0,.24,0,.49,0,.73,0,7.72,12,7.73,12,0Z" transform="translate(-198.55 -133.5)"/>
    <path d="M862.33,575h311.38c14.35,0,28.87.65,43.21,0h.63c7.72,0,7.73-12,0-12H906.16c-14.35,0-28.87-.65-43.21,0h-.62c-7.72,0-7.73,12,0,12Z" transform="translate(-198.55 -133.5)"/>
  </g>
  <g id="right_leg" data-name="right leg">
    <line class="cls-1" x1="660.95" y1="376" x2="605.95" y2="316"/>
    <path d="M863,506l-55-60c-4.36-4.75-11.42,2.34-7.08,7.08l55,60c4.36,4.75,11.42-2.34,7.08-7.08Z" transform="translate(-198.55 -133.5)"/>
  </g>
  <g id="left_leg" data-name="left leg">
    <line class="cls-1" x1="545.95" y1="376" x2="600.95" y2="316"/>
    <path d="M748,513l55-60c4.34-4.74-2.72-11.83-7.08-7.08l-55,60c-4.34,4.74,2.72,11.83,7.08,7.08Z" transform="translate(-198.55 -133.5)"/>
  </g>
  <g id="right_arm" data-name="right arm">
    <line class="cls-1" x1="602.95" y1="241" x2="663.95" y2="286"/>
    <path d="M799,378.82l61,45c5.18,3.82,10.17-4.85,5-8.64l-61-45c-5.18-3.82-10.17,4.85-5,8.64Z" transform="translate(-198.55 -133.5)"/>
  </g>
  <g id="left_arm" data-name="left arm">
    <line class="cls-1" x1="602.95" y1="241" x2="547.95" y2="284"/>
    <path d="M798,371l-55,43c-5.06,4,2.06,11,7.08,7.08l55-43c5.06-4-2.06-11-7.08-7.08Z" transform="translate(-198.55 -133.5)"/>
  </g>
  <g id="body">
    <line class="cls-1" x1="602.95" y1="203" x2="602.95" y2="313"/>
    <path d="M796.5,336.5v110c0,6.43,10,6.45,10,0v-110c0-6.43-10-6.45-10,0Z" transform="translate(-198.55 -133.5)"/>
  </g>
  <g id="head">
    <circle class="cls-1" cx="603.45" cy="148.5" r="55"/>
    <path d="M852,282c-.26,20.67-13,39.82-32.69,46.94A50.61,50.61,0,0,1,763.56,314c-13.5-16-15.22-39.67-4.51-57.62s32.08-27.61,52.54-23.48A50.59,50.59,0,0,1,852,282c.08,6.43,10.08,6.45,10,0a60.78,60.78,0,0,0-39.41-56.35c-23.52-8.75-51.11-1.17-66.93,18.27s-18.1,47.19-5.25,68.74a60.7,60.7,0,0,0,63.17,28.2c28-5.29,48.07-30.68,48.42-58.86C862.08,275.56,852.08,275.56,852,282Z" transform="translate(-198.55 -133.5)"/>
  </g>
  <g id="alphabet">
    <path d="M245.94,786.83h-7.42l-5.13-14.59H210.74l-5.13,14.59h-7.06l19-52.35h9.28Zm-14.7-20.57-9.18-25.69-9.21,25.69Z" transform="translate(-198.55 -133.5)"/>
    <path d="M319.07,770.73a15.42,15.42,0,0,1-1.47,6.89,14,14,0,0,1-4,4.92,18.46,18.46,0,0,1-6.48,3.31,34.54,34.54,0,0,1-9,1H279.59V734.48H295.1a61.83,61.83,0,0,1,8.57.43,17.38,17.38,0,0,1,5.45,1.75,9.81,9.81,0,0,1,4.19,3.89,11.71,11.71,0,0,1,1.3,5.68,10.47,10.47,0,0,1-1.9,6.34,13.6,13.6,0,0,1-5.06,4.2v.28a14.42,14.42,0,0,1,8.36,4.66A13.38,13.38,0,0,1,319.07,770.73Zm-11.7-23.59a7.3,7.3,0,0,0-.64-3.2,4.87,4.87,0,0,0-2-2.11,10,10,0,0,0-4-1.18q-2.35-.23-5.84-.23h-8.3v15.12h9a32.47,32.47,0,0,0,5.21-.33,9.69,9.69,0,0,0,3.58-1.39,5.82,5.82,0,0,0,2.34-2.73A10.3,10.3,0,0,0,307.37,747.14ZM311.83,771a11.24,11.24,0,0,0-.95-5,7.64,7.64,0,0,0-3.44-3.16,11.38,11.38,0,0,0-4.1-1.14,53.78,53.78,0,0,0-5.85-.27H286.55v19.48h9.21a49,49,0,0,0,7.49-.47,11.72,11.72,0,0,0,4.78-1.75,8.75,8.75,0,0,0,2.89-3.12A9.86,9.86,0,0,0,311.83,771Z" transform="translate(-198.55 -133.5)"/>
    <path d="M388.56,783c-1.28.57-2.45,1.09-3.49,1.59a35.51,35.51,0,0,1-4.1,1.54,41.25,41.25,0,0,1-4.66,1.15,30.41,30.41,0,0,1-5.53.47,31.68,31.68,0,0,1-10.36-1.6,21.25,21.25,0,0,1-8.1-5,22.83,22.83,0,0,1-5.27-8.49,38.07,38.07,0,0,1-.07-23.54,23.25,23.25,0,0,1,5.27-8.61,22,22,0,0,1,8.07-5.2,29.27,29.27,0,0,1,10.49-1.8,35.58,35.58,0,0,1,8.42,1,45,45,0,0,1,9.33,3.59v8.26H388a31.26,31.26,0,0,0-8.58-5.27,25,25,0,0,0-9.11-1.65,18.9,18.9,0,0,0-7.15,1.28,15.57,15.57,0,0,0-5.68,4,18.26,18.26,0,0,0-3.78,6.66,29.21,29.21,0,0,0-1.35,9.3,27.13,27.13,0,0,0,1.49,9.49,19.1,19.1,0,0,0,3.85,6.47,15.23,15.23,0,0,0,5.75,3.85,19.45,19.45,0,0,0,6.94,1.25,25.77,25.77,0,0,0,9.43-1.72,27.13,27.13,0,0,0,8.22-5.17h.49Z" transform="translate(-198.55 -133.5)"/>
    <path d="M464.76,760.71a27,27,0,0,1-3.11,12.94,23.42,23.42,0,0,1-8.28,9,26,26,0,0,1-8,3.2,55.71,55.71,0,0,1-11.62,1H420.53V734.48h13.08a53.11,53.11,0,0,1,12.18,1.11,26.61,26.61,0,0,1,7.65,3,23.36,23.36,0,0,1,8.33,8.9A27.44,27.44,0,0,1,464.76,760.71Zm-7.28-.11a22.73,22.73,0,0,0-2.14-10.37,15.74,15.74,0,0,0-6.4-6.64,21.53,21.53,0,0,0-6.57-2.44,43.52,43.52,0,0,0-8.34-.69h-6.54v40.39H434a46.12,46.12,0,0,0,8.78-.73,19.83,19.83,0,0,0,6.87-2.75,15.71,15.71,0,0,0,5.85-6.57A23.61,23.61,0,0,0,457.48,760.6Z" transform="translate(-198.55 -133.5)"/>
    <path d="M535,786.83H500.51V734.48H535v6.19H507.47V755H535v6.19H507.47v19.44H535Z" transform="translate(-198.55 -133.5)"/>
    <path d="M611,740.67H584.54v14.77h22.75v6.18H584.54v25.21h-7V734.48H611Z" transform="translate(-198.55 -133.5)"/>
    <path d="M683,783a65,65,0,0,1-9.37,3.43,35.94,35.94,0,0,1-21-.23,22.93,22.93,0,0,1-8.68-5.06,22.56,22.56,0,0,1-5.59-8.52,33.35,33.35,0,0,1-2-12q0-12.54,7.33-19.81t20.13-7.26a40.36,40.36,0,0,1,9.12,1.08,48.58,48.58,0,0,1,10,3.64v8.26h-.64c-.72-.57-1.78-1.3-3.16-2.22a27.34,27.34,0,0,0-9.58-4.09,30.76,30.76,0,0,0-7-.72q-8.79,0-13.9,5.64t-5.12,15.27q0,10.17,5.35,15.81t14.55,5.64a34.06,34.06,0,0,0,6.73-.67,31.06,31.06,0,0,0,5.89-1.72V766.62h-14V760.5H683Z" transform="translate(-198.55 -133.5)"/>
    <path d="M755.26,786.83h-7V761.2H722.18v25.63h-7V734.48h7V755H748.3V734.48h7Z" transform="translate(-198.55 -133.5)"/>
    <path d="M814.58,786.83H793.9v-5.34h6.86V739.83H793.9v-5.35h20.68v5.35h-6.86v41.66h6.86Z" transform="translate(-198.55 -133.5)"/>
    <path d="M889.1,773.23q0,6.88-4.2,10.61t-11.27,3.73a44.78,44.78,0,0,1-4.5-.3,44.24,44.24,0,0,1-4.71-.72v-6.5h.39c1,.32,2.14.66,3.55,1a17.86,17.86,0,0,0,4.32.52,14.44,14.44,0,0,0,5.15-.74,5.74,5.74,0,0,0,2.83-2.1,7.87,7.87,0,0,0,1.22-3.45,38.33,38.33,0,0,0,.26-4.71V740H871.07v-5.56h18Z" transform="translate(-198.55 -133.5)"/>
    <path d="M972.41,786.83h-9l-20.71-23.31-5.21,5.56v17.75h-7V734.48h7V761.8l25.42-27.32h8.44l-23.38,24.61Z" transform="translate(-198.55 -133.5)"/>
    <path d="M1043.35,786.83h-33.12V734.48h7v46.16h26.16Z" transform="translate(-198.55 -133.5)"/>
    <path d="M1119.12,783.48h-7v-45.1l-14.55,30.69h-4.15L1079,738.38v45.1h-6.5V731.13H1082l14,29.15,13.5-29.15h9.66Z" transform="translate(-198.55 -133.5)"/>
    <path d="M242.28,869.83h-8.61L208.85,823v46.83h-6.51V817.48h10.8l22.64,42.75V817.48h6.5Z" transform="translate(-198.55 -133.5)"/>
    <path d="M309,823.5a23.72,23.72,0,0,1,4.9,8.61,36.26,36.26,0,0,1,1.71,11.56,35.87,35.87,0,0,1-1.74,11.59,23.6,23.6,0,0,1-4.87,8.52,20.93,20.93,0,0,1-7.65,5.35,28.83,28.83,0,0,1-20.11,0,20.78,20.78,0,0,1-7.68-5.31,23.79,23.79,0,0,1-4.87-8.54,40,40,0,0,1,0-23,24.24,24.24,0,0,1,4.92-8.7,20.15,20.15,0,0,1,7.68-5.28,26.75,26.75,0,0,1,10-1.83,26.36,26.36,0,0,1,10.11,1.85A21,21,0,0,1,309,823.5Zm-.63,20.17q0-10.18-4.57-15.73t-12.48-5.53q-8,0-12.54,5.53t-4.55,15.73q0,10.3,4.64,15.77a16.87,16.87,0,0,0,24.87,0Q308.34,854,308.33,843.67Z" transform="translate(-198.55 -133.5)"/>
    <path d="M385.81,833.3a16.87,16.87,0,0,1-1.22,6.45,15.54,15.54,0,0,1-3.39,5.16,17.62,17.62,0,0,1-6.4,4.06,27.46,27.46,0,0,1-9.32,1.35h-7v19.51h-7V817.48h14.21a34.89,34.89,0,0,1,8,.79,18.17,18.17,0,0,1,5.8,2.48,14.14,14.14,0,0,1,4.62,5A15.6,15.6,0,0,1,385.81,833.3Zm-7.25.18a10.76,10.76,0,0,0-.95-4.71,7.82,7.82,0,0,0-2.88-3.27,11.6,11.6,0,0,0-3.85-1.57,26.61,26.61,0,0,0-5.47-.47h-6.89v20.92h5.88a25.25,25.25,0,0,0,6.85-.76,9.58,9.58,0,0,0,4.29-2.41,10,10,0,0,0,2.34-3.55A12.18,12.18,0,0,0,378.56,833.48Z" transform="translate(-198.55 -133.5)"/>
    <path d="M466.62,882.66a31.18,31.18,0,0,1-4.16.76,38.56,38.56,0,0,1-4.2.23q-6.12,0-9.83-3.36t-4-9.62a16.09,16.09,0,0,1-1.63.2c-.53,0-1,0-1.53,0a26.51,26.51,0,0,1-10-1.83,20.78,20.78,0,0,1-7.68-5.31,23.79,23.79,0,0,1-4.87-8.54,40,40,0,0,1,0-23,24.24,24.24,0,0,1,4.92-8.7,20.15,20.15,0,0,1,7.68-5.28,26.75,26.75,0,0,1,10-1.83,26.36,26.36,0,0,1,10.11,1.85A21,21,0,0,1,459,823.5a23.72,23.72,0,0,1,4.9,8.61,36.26,36.26,0,0,1,1.71,11.56q0,9.6-3.92,16.18a21.25,21.25,0,0,1-10.53,9.21,10.38,10.38,0,0,0,1.9,6.22q1.75,2.22,6.4,2.22a16.32,16.32,0,0,0,3.42-.44,18.32,18.32,0,0,0,2.83-.8h.95Zm-8.29-39q0-10.18-4.57-15.73t-12.48-5.53q-8,0-12.54,5.53t-4.55,15.73q0,10.3,4.64,15.77a16.87,16.87,0,0,0,24.87,0Q458.34,854,458.33,843.67Z" transform="translate(-198.55 -133.5)"/>
    <path d="M541.55,869.83h-9L515,849H505.2v20.81h-7V817.48H512.9a42.46,42.46,0,0,1,7.91.62,16.56,16.56,0,0,1,5.7,2.2,13.2,13.2,0,0,1,4.44,4.51,13.46,13.46,0,0,1,1.6,6.91,15.46,15.46,0,0,1-2.84,9.48,17.29,17.29,0,0,1-7.84,5.74Zm-16.27-37.62a9.51,9.51,0,0,0-.8-4,6.88,6.88,0,0,0-2.61-2.93,9.7,9.7,0,0,0-3.59-1.43,25.82,25.82,0,0,0-4.89-.4H505.2v19.76h7a25.73,25.73,0,0,0,5.77-.58,9.09,9.09,0,0,0,6.52-5.56A13.45,13.45,0,0,0,525.28,832.21Z" transform="translate(-198.55 -133.5)"/>
    <path d="M605.7,854.89a14,14,0,0,1-1.42,6.05,14.39,14.39,0,0,1-4,5.06,21.25,21.25,0,0,1-6.56,3.51,28.15,28.15,0,0,1-9,1.27,45,45,0,0,1-10.17-1,52.37,52.37,0,0,1-9.2-3.13v-8.72h.49A29.12,29.12,0,0,0,575,863a30.22,30.22,0,0,0,9.77,1.79c4.32,0,7.67-.81,10.08-2.43a7.45,7.45,0,0,0,3.6-6.47q0-3.48-1.71-5.13a11.56,11.56,0,0,0-5.18-2.57,55.25,55.25,0,0,0-5.71-1.16c-2.06-.3-4.23-.69-6.53-1.16q-7-1.47-10.31-5a13.77,13.77,0,0,1,2.19-20.07q5.56-4.22,14.1-4.21a45.59,45.59,0,0,1,10.13,1.06,46.26,46.26,0,0,1,8.15,2.6v8.23h-.49a24,24,0,0,0-7.86-4.2,30.31,30.31,0,0,0-10-1.67,15.65,15.65,0,0,0-9,2.32,7,7,0,0,0-3.39,6,7.37,7.37,0,0,0,1.69,5.14q1.68,1.86,5.94,2.84,2.25.49,6.4,1.2c2.76.47,5.11,1,7,1.44q5.84,1.54,8.79,4.68T605.7,854.89Z" transform="translate(-198.55 -133.5)"/>
    <path d="M682.42,823.67h-18.7v46.16h-7V823.67h-18.7v-6.19h44.36Z" transform="translate(-198.55 -133.5)"/>
    <path d="M743.91,846.46a35.38,35.38,0,0,1-1.25,9.93,16.12,16.12,0,0,1-4.1,7.05,16.34,16.34,0,0,1-6.33,3.9,26.18,26.18,0,0,1-8.43,1.23,25.55,25.55,0,0,1-8.58-1.3,16,16,0,0,1-6.15-3.83,16.62,16.62,0,0,1-4.1-7,34.73,34.73,0,0,1-1.25-10V815.13h7v31.68a30.94,30.94,0,0,0,.58,6.71,13.31,13.31,0,0,0,2,4.47,9.64,9.64,0,0,0,4.21,3.44,15.74,15.74,0,0,0,6.38,1.16,16.13,16.13,0,0,0,6.4-1.14,9.58,9.58,0,0,0,4.21-3.46,13.16,13.16,0,0,0,2-4.59A30.29,30.29,0,0,0,737,847V815.13h7Z" transform="translate(-198.55 -133.5)"/>
    <path d="M822.94,817.48l-19.06,52.35H794.6l-19.06-52.35H783l16.42,46.06,16.41-46.06Z" transform="translate(-198.55 -133.5)"/>
    <path d="M900.6,815.21,887,867.56h-7.84l-11-43.46L857.4,867.56h-7.67l-13.85-52.35H843l11,43.52,10.83-43.52h7.07l10.93,43.94,10.93-43.94Z" transform="translate(-198.55 -133.5)"/>
    <path d="M965.55,817.48l-18.07,25.88,18,26.47h-8l-14.27-21.55-14.63,21.55H921l18.24-26.16-17.82-26.19h8l14.09,21.27,14.42-21.27Z" transform="translate(-198.55 -133.5)"/>
    <path d="M1044.94,823.15l-18.42,29.39v23h-7V853.28l-18.49-30.13h7.7l14.31,23.41,14.45-23.41Z" transform="translate(-198.55 -133.5)"/>
    <path d="M1116.1,869.91h-40.85v-6.47l32.1-39.69h-30.91v-6.19h38.89v6.29l-32.42,39.87h33.19Z" transform="translate(-198.55 -133.5)"/>
  </g>
</svg>
