<svg xmlns="http://www.w3.org/2000/svg" viewBox="0 0 483.74 441.79">
  <defs>
    <style>
      .cls-1 {
        fill: #fff;
      }
    </style>
  </defs>
  <title>Asset 1</title>
  <g id="Layer_2" data-name="Layer 2">
    <g id="hangman">
      <g id="hangman_post">
        <g id="noose">
          <path d="M51.9,6V93c0,7.72,12,7.73,12,0V6c0-7.72-12-7.73-12,0Z"/>
        </g>
        <g id="top">
          <path d="M305.06,0H57.9c-7.72,0-7.74,12,0,12H305.06c7.72,0,7.74-12,0-12Z"/>
        </g>
        <g id="post">
          <path d="M311.06,435.5V58.94c0-17.34.76-34.87,0-52.21,0-.24,0-.49,0-.73,0-7.72-12-7.73-12,0V382.56c0,17.34-.75,34.87,0,52.21,0,.24,0,.49,0,.73,0,7.72,12,7.73,12,0Z"/>
        </g>
        <g id="base">
          <path d="M122.73,441.5H434.11c14.35,0,28.87.65,43.21,0h.62c7.72,0,7.74-12,0-12H166.56c-14.35,0-28.87-.65-43.21,0h-.62c-7.72,0-7.74,12,0,12Z"/>
        </g>
      </g>
      <g id="right_leg">
        <line class="cls-1" x1="119.9" y1="376" x2="64.9" y2="316"/>
        <path d="M123.43,372.46l-55-60c-4.36-4.75-11.41,2.34-7.07,7.08l55,60c4.36,4.75,11.42-2.34,7.07-7.08Z"/>
      </g>
      <g id="left_leg">
        <line class="cls-1" x1="4.9" y1="376" x2="59.9" y2="316"/>
        <path d="M8.43,379.54l55-60c4.34-4.74-2.71-11.83-7.07-7.08l-55,60c-4.34,4.74,2.71,11.83,7.07,7.08Z"/>
      </g>
      <g id="right_arm">
        <line class="cls-1" x1="61.9" y1="241" x2="122.9" y2="286"/>
        <path d="M59.37,245.32l61,45c5.19,3.82,10.18-4.85,5-8.64l-61-45c-5.18-3.82-10.18,4.85-5.05,8.64Z"/>
      </g>
      <g id="left_arm">
        <line class="cls-1" x1="61.9" y1="241" x2="6.9" y2="284"/>
        <path d="M58.36,237.46l-55,43c-5.06,4,2.06,11,7.07,7.08l55-43c5.07-4-2.05-11-7.07-7.08Z"/>
      </g>
      <g id="body">
        <line class="cls-1" x1="61.9" y1="203" x2="61.9" y2="313"/>
        <path d="M56.9,203V313c0,6.43,10,6.45,10,0V203c0-6.43-10-6.45-10,0Z"/>
      </g>
      <g id="head">
        <path d="M112.4,148.5c-.26,20.67-13,39.82-32.69,46.94A50.6,50.6,0,0,1,24,180.51c-13.51-16-15.22-39.67-4.52-57.62S51.53,95.28,72,99.41A50.59,50.59,0,0,1,112.4,148.5c.08,6.43,10.08,6.45,10,0A60.8,60.8,0,0,0,83,92.15C59.47,83.4,31.88,91,16.06,110.42S-2,157.61,10.81,179.16A60.69,60.69,0,0,0,74,207.36c28.05-5.29,48.07-30.68,48.42-58.86C122.48,142.06,112.48,142.06,112.4,148.5Z"/>
      </g>
    </g>
  </g>
</svg>
