<svg id="Layer_2" data-name="Layer 2" xmlns="http://www.w3.org/2000/svg" xmlns:xlink="http://www.w3.org/1999/xlink" viewBox="0 0 468 254.15">
  <defs>
    <style>
      .cls-1 {
        fill: url(#linear-gradient);
      }

      .cls-2 {
        fill: url(#linear-gradient-2);
      }

      .cls-3 {
        fill: url(#linear-gradient-3);
      }

      .cls-4 {
        fill: url(#linear-gradient-4);
      }

      .cls-5 {
        fill: url(#linear-gradient-5);
      }

      .cls-6 {
        fill: url(#linear-gradient-6);
      }

      .cls-7 {
        fill: url(#linear-gradient-7);
      }

      .cls-8 {
        fill: url(#linear-gradient-8);
      }

      .cls-9 {
        fill: url(#linear-gradient-9);
      }

      .cls-10 {
        fill: url(#linear-gradient-10);
      }

      .cls-11 {
        fill: url(#linear-gradient-11);
      }

      .cls-12 {
        fill: url(#linear-gradient-12);
      }

      .cls-13 {
        fill: url(#linear-gradient-13);
      }

      .cls-14 {
        fill: url(#linear-gradient-14);
      }

      .cls-15 {
        fill: url(#linear-gradient-15);
      }

      .cls-16 {
        fill: url(#linear-gradient-16);
      }
    </style>
    <linearGradient id="linear-gradient" x1="141.62" y1="107.85" x2="141.62" y2="241.95" gradientUnits="userSpaceOnUse">
      <stop offset="0" stop-color="#b6b6b6"/>
      <stop offset="0.3" stop-color="#f2f2f2"/>
      <stop offset="0.73" stop-color="#636363"/>
      <stop offset="1" stop-color="#e5e5e5"/>
    </linearGradient>
    <linearGradient id="linear-gradient-2" x1="158.98" y1="23.79" x2="158.98" y2="109.23" xlink:href="#linear-gradient"/>
    <linearGradient id="linear-gradient-3" x1="191.91" y1="131.64" x2="191.91" y2="217.08" xlink:href="#linear-gradient"/>
    <linearGradient id="linear-gradient-4" x1="229.92" y1="131.64" x2="229.92" y2="217.08" xlink:href="#linear-gradient"/>
    <linearGradient id="linear-gradient-5" x1="268.94" y1="131.64" x2="268.94" y2="217.08" xlink:href="#linear-gradient"/>
    <linearGradient id="linear-gradient-6" x1="306.54" y1="131.64" x2="306.54" y2="217.16" xlink:href="#linear-gradient"/>
    <linearGradient id="linear-gradient-7" x1="322.28" y1="23.79" x2="322.28" y2="109.23" xlink:href="#linear-gradient"/>
    <linearGradient id="linear-gradient-8" x1="364.85" y1="131.64" x2="364.85" y2="217.08" xlink:href="#linear-gradient"/>
    <linearGradient id="linear-gradient-9" x1="231.44" y1="114.64" x2="231.44" y2="251.99" xlink:href="#linear-gradient"/>
    <linearGradient id="linear-gradient-10" x1="235.33" y1="250.61" x2="235.33" y2="336.04" xlink:href="#linear-gradient"/>
    <linearGradient id="linear-gradient-11" x1="349.71" y1="250.61" x2="349.71" y2="336.04" xlink:href="#linear-gradient"/>
    <linearGradient id="linear-gradient-12" x1="414.86" y1="250.61" x2="414.86" y2="336.04" xlink:href="#linear-gradient"/>
    <linearGradient id="linear-gradient-13" x1="454.96" y1="250.61" x2="454.96" y2="336.04" xlink:href="#linear-gradient"/>
    <linearGradient id="linear-gradient-14" x1="369.33" y1="142.76" x2="369.33" y2="228.19" xlink:href="#linear-gradient"/>
    <linearGradient id="linear-gradient-15" x1="275.13" y1="250.61" x2="275.13" y2="336.04" xlink:href="#linear-gradient"/>
    <linearGradient id="linear-gradient-16" x1="312.98" y1="250.61" x2="312.98" y2="336.04" xlink:href="#linear-gradient"/>
  </defs>
  <title>starship_logo</title>
  <g id="Starship">
    <path d="M142.7,155.44H110.25c-8.65,0-4.33-5.41-2.16-14.06s3.24-11.9,8.65-11.9H256.25L262.74,110H109.17c-21.63,0-29.2,29.2-37.85,55.16s2.16,29.2,7.57,29.2h23.79c14.06,0,17.3-1.08,16.22,2.16s-8.65,29.2-13,29.2H19.41L14,244.12H120c7.57,0,15.14-10.81,18.39-20.55s6.49-19.47,14.06-41.1S151.35,155.44,142.7,155.44Z" transform="translate(-14 -107.85)"/>
    <polygon points="177.36 35.69 180.61 25.96 146 25.96 142.76 35.69 155.74 35.69 130.86 111.39 142.76 111.39 168.71 35.69 177.36 35.69"/>
    <path d="M198.93,133.81l-36.77,85.44H173l5.41-9.73h4.33l-1.08,9.73h13l20.55-85.44ZM187,197.61h-4.33L200,155.44Z" transform="translate(-14 -107.85)"/>
    <path d="M237.87,174.9c7.57,0,10.81-13,15.14-28.12,2.16-8.65,3.24-13-7.57-13h-17.3l-29.2,85.44h11.9l13-38.93s4.33,0,3.24,5.41-11.9,33.53-11.9,33.53h13L240,183.55C241.11,180.31,241.11,177.07,237.87,174.9Zm-9.73-6.49,8.65-23.79h5.41l-8.65,23.79Z" transform="translate(-14 -107.85)"/>
    <path d="M275.72,169.49H264.91s9.73-24.87,10.81-24.87,3.24,0,2.16,2.16-6.49,18.39-6.49,18.39h13l5.41-13c5.41-13,2.16-18.39,0-18.39H271.39c-8.65,0-16.22,24.87-18.39,34.61s0,13,3.24,13H266s-5.41,15.14-7.57,22.71-5.41,3.24-4.33,0,5.41-17.3,5.41-17.3h-13s-2.16,4.33-6.49,18.39,2.16,14.06,10.81,14.06,14.06-1.08,17.3-5.41,8.65-22.71,10.81-31.36S280,169.49,275.72,169.49Z" transform="translate(-14 -107.85)"/>
    <path d="M321.14,133.81l-13,35.69h-5.41l13-35.69H301.68l-29.2,85.44h11.9c1.08,0,3.24,2.16,8.65-16.22s6.49-22.71,6.49-22.71h5.41l-13,38.93h13l29.2-85.44Z" transform="translate(-14 -107.85)"/>
    <polygon points="326.61 25.96 297.41 111.39 311.47 111.39 340.67 25.96 326.61 25.96"/>
    <path d="M378.46,133.81H362.24L333,219.24h13l7.57-21.63h8.65c4.33,0,10.81-1.08,15.14-15.14s9.73-31.36,11.9-38.93S390.36,133.81,378.46,133.81Zm-2.16,13-5.43,16.3-.37,1.1-.08.24-.07.22v0l-5.93,17.78c-2.16,6.49-8.65,4.33-7.57,1.08.92-2.75,5.73-16.41,7.16-20.48h0l.41-1.15h.07c1.05-2.56,3.65-9,5.34-14.07C372,141.38,377.38,143.54,376.3,146.78Z" transform="translate(-14 -107.85)"/>
  </g>
  <g id="Troopers">
    <polygon points="325.53 136.27 332.02 116.8 130.86 116.8 124.37 136.27 187.1 136.27 146 254.15 174.12 254.15 216.3 136.27 325.53 136.27"/>
    <path d="M243.28,293.87c7.57,0,10.81-13,15.14-28.12,2.16-8.65,3.24-13-7.57-13h-17.3l-29.2,85.44h11.9l13-38.93s4.33,0,3.24,5.41-11.9,33.53-11.9,33.53h13l11.9-35.69C246.52,299.27,246.52,296,243.28,293.87Zm-9.73-6.49,8.65-23.79h5.41l-8.65,23.79Z" transform="translate(-14 -107.85)"/>
    <path d="M362.24,301.44c4.33-14.06,9.73-31.36,11.9-38.93s1.08-9.73-10.81-9.73H347.1l-29.2,85.44h13l7.57-21.63h8.65C351.42,316.58,357.91,315.5,362.24,301.44Zm-6.88-18.28-.08.24-.07.22v0l-5.93,17.78c-2.16,6.49-8.65,4.33-7.57,1.08.92-2.75,5.73-16.41,7.16-20.48h0l.41-1.15h.07c1.05-2.56,3.65-9,5.34-14.07,2.16-6.49,7.57-4.33,6.49-1.08L355.72,282Z" transform="translate(-14 -107.85)"/>
    <path d="M422.8,293.87c7.57,0,10.81-13,15.14-28.12,2.16-8.65,3.24-13-7.57-13h-17.3l-29.2,85.44h11.9l13-38.93s4.33,0,3.24,5.41-11.9,33.53-11.9,33.53h13L425,302.52C426,299.27,426,296,422.8,293.87Zm-9.73-6.49,8.65-23.79h5.41l-8.65,23.79Z" transform="translate(-14 -107.85)"/>
    <path d="M475.8,252.77H457.41c-8.65,0-16.22,24.87-18.39,34.61s0,13,3.24,13H452s-5.41,15.14-7.57,22.71-5.41,3.24-4.33,0,5.41-17.3,5.41-17.3h-13s-2.16,4.33-6.49,18.39,2.16,14.06,10.81,14.06,14.06-1.08,17.3-5.41,8.65-22.71,10.81-31.36,1.08-13-3.24-13H450.92s9.73-24.87,10.81-24.87,3.24,0,2.16,2.16-6.49,18.39-6.49,18.39h13l5.41-13C481.2,258.18,478,252.77,475.8,252.77Z" transform="translate(-14 -107.85)"/>
    <polygon points="376.36 192.5 379.6 180.61 372.03 180.61 379.6 155.74 388.25 155.74 391.5 144.92 370.95 144.92 340.67 230.36 363.38 230.36 367.71 219.54 359.06 219.54 368.79 192.5 376.36 192.5"/>
    <path d="M293,252.77H277.88c-3.24,0-7.57,1.08-13,19.47s-17.3,51.91-17.3,51.91-7.57,14.06,2.16,14.06H266c4.33,0,9.73-2.16,13-15.14s18.39-58.4,19.47-62.73S299.51,252.77,293,252.77Zm-29.2,74.62h-5.41L280,263.58h5.41Z" transform="translate(-14 -107.85)"/>
    <path d="M330.88,252.77H315.74c-3.24,0-7.57,1.08-13,19.47s-17.3,51.91-17.3,51.91-7.57,14.06,2.16,14.06h16.22c4.33,0,9.73-2.16,13-15.14s18.39-58.4,19.47-62.73S337.37,252.77,330.88,252.77Zm-29.2,74.62h-5.41l21.63-63.81h5.41Z" transform="translate(-14 -107.85)"/>
  </g>
  <g id="Starship-2" data-name="Starship">
    <path class="cls-1" d="M145.94,153.27H113.5c-8.65,0-4.33-5.41-2.16-14.06s3.24-11.9,8.65-11.9H259.5L266,107.85H112.42c-21.63,0-29.2,29.2-37.85,55.16s2.16,29.2,7.57,29.2h23.79c14.06,0,17.3-1.08,16.22,2.16s-8.65,29.2-13,29.2H22.65L17.24,242h106c7.57,0,15.14-10.81,18.39-20.55s6.49-19.47,14.06-41.1S154.59,153.27,145.94,153.27Z" transform="translate(-14 -107.85)"/>
    <polygon class="cls-2" points="180.61 33.53 183.85 23.79 149.25 23.79 146 33.53 158.98 33.53 134.1 109.23 146 109.23 171.96 33.53 180.61 33.53"/>
    <path class="cls-3" d="M202.18,131.64l-36.77,85.44h10.81l5.41-9.73H186l-1.08,9.73h13l20.55-85.44Zm-11.9,63.81H186l17.3-42.18Z" transform="translate(-14 -107.85)"/>
    <path class="cls-4" d="M241.11,172.74c7.57,0,10.81-13,15.14-28.12,2.16-8.65,3.24-13-7.57-13h-17.3l-29.2,85.44h11.9l13-38.93s4.33,0,3.24,5.41-11.9,33.53-11.9,33.53h13l11.9-35.69C244.36,178.15,244.36,174.9,241.11,172.74Zm-9.73-6.49L240,142.46h5.41l-8.65,23.79Z" transform="translate(-14 -107.85)"/>
    <path class="cls-5" d="M279,167.33H268.15s9.73-24.87,10.81-24.87,3.24,0,2.16,2.16S274.64,163,274.64,163h13L293,150c5.41-13,2.16-18.39,0-18.39H274.64c-8.65,0-16.22,24.87-18.39,34.61s0,13,3.24,13h9.73s-5.41,15.14-7.57,22.71-5.41,3.24-4.33,0,5.41-17.3,5.41-17.3h-13S247.6,189,243.28,203s2.16,14.06,10.81,14.06,14.06-1.08,17.3-5.41S280,189,282.21,180.31,283.29,167.33,279,167.33Z" transform="translate(-14 -107.85)"/>
    <path class="cls-6" d="M324.39,131.64l-13,35.69H306l13-35.69H304.92l-29.2,85.44h11.9c1.08,0,3.24,2.16,8.65-16.22s6.49-22.71,6.49-22.71h5.41l-13,38.93h13l29.2-85.44Z" transform="translate(-14 -107.85)"/>
    <polygon class="cls-7" points="329.85 23.79 300.65 109.23 314.71 109.23 343.91 23.79 329.85 23.79"/>
    <path class="cls-8" d="M381.71,131.64H365.48l-29.2,85.44h13l7.57-21.63h8.65c4.33,0,10.81-1.08,15.14-15.14s9.73-31.36,11.9-38.93S393.6,131.64,381.71,131.64Zm-2.16,13-5.43,16.3-.37,1.1-.08.24-.07.22v0l-5.93,17.78c-2.16,6.49-8.65,4.33-7.57,1.08.92-2.75,5.73-16.41,7.16-20.48h0l.41-1.15h.07c1.05-2.56,3.65-9,5.34-14.07C375.22,139.21,380.63,141.38,379.54,144.62Z" transform="translate(-14 -107.85)"/>
  </g>
  <g id="Troopers-2" data-name="Troopers">
    <polygon class="cls-9" points="328.77 134.1 335.26 114.64 134.1 114.64 127.62 134.1 190.34 134.1 149.25 251.99 177.36 251.99 219.54 134.1 328.77 134.1"/>
    <path class="cls-10" d="M246.52,291.7c7.57,0,10.81-13,15.14-28.12,2.16-8.65,3.24-13-7.57-13h-17.3L207.59,336h11.9l13-38.93s4.33,0,3.24,5.41S223.81,336,223.81,336h13l11.9-35.69C249.76,297.11,249.76,293.87,246.52,291.7Zm-9.73-6.49,8.65-23.79h5.41l-8.65,23.79Z" transform="translate(-14 -107.85)"/>
    <path class="cls-11" d="M365.48,299.27c4.33-14.06,9.73-31.36,11.9-38.93s1.08-9.73-10.81-9.73H350.34L321.14,336h13l7.57-21.63h8.65C354.67,314.41,361.16,313.33,365.48,299.27ZM358.6,281l-.08.24-.07.22v0l-5.93,17.78c-2.16,6.49-8.65,4.33-7.57,1.08.92-2.75,5.73-16.41,7.16-20.48h0l.41-1.15h.07c1.05-2.56,3.65-9,5.34-14.07,2.16-6.49,7.57-4.33,6.49-1.08L359,279.89Z" transform="translate(-14 -107.85)"/>
    <path class="cls-12" d="M426,291.7c7.57,0,10.81-13,15.14-28.12,2.16-8.65,3.24-13-7.57-13h-17.3L387.11,336H399l13-38.93s4.33,0,3.24,5.41S403.34,336,403.34,336h13l11.9-35.69C429.29,297.11,429.29,293.87,426,291.7Zm-9.73-6.49L425,261.42h5.41l-8.65,23.79Z" transform="translate(-14 -107.85)"/>
    <path class="cls-13" d="M479,250.61H460.66c-8.65,0-16.22,24.87-18.39,34.61s0,13,3.24,13h9.73s-5.41,15.14-7.57,22.71-5.41,3.24-4.33,0,5.41-17.3,5.41-17.3h-13s-2.16,4.33-6.49,18.39S431.46,336,440.11,336s14.06-1.08,17.3-5.41,8.65-22.71,10.81-31.36,1.08-13-3.24-13H454.17s9.73-24.87,10.81-24.87,3.24,0,2.16,2.16S460.66,282,460.66,282h13L479,269C484.45,256,481.2,250.61,479,250.61Z" transform="translate(-14 -107.85)"/>
    <polygon class="cls-14" points="379.6 190.34 382.85 178.45 375.28 178.45 382.85 153.57 391.5 153.57 394.74 142.76 374.2 142.76 343.91 228.19 366.63 228.19 370.95 217.38 362.3 217.38 372.03 190.34 379.6 190.34"/>
    <path class="cls-15" d="M296.27,250.61H281.13c-3.24,0-7.57,1.08-13,19.47S250.85,322,250.85,322,243.28,336,253,336h16.22c4.33,0,9.73-2.16,13-15.14s18.39-58.4,19.47-62.73S302.76,250.61,296.27,250.61Zm-29.2,74.62h-5.41l21.63-63.81h5.41Z" transform="translate(-14 -107.85)"/>
    <path class="cls-16" d="M334.12,250.61H319c-3.24,0-7.57,1.08-13,19.47S288.7,322,288.7,322,281.13,336,290.86,336h16.22c4.33,0,9.73-2.16,13-15.14s18.39-58.4,19.47-62.73S340.61,250.61,334.12,250.61Zm-29.2,74.62h-5.41l21.63-63.81h5.41Z" transform="translate(-14 -107.85)"/>
  </g>
</svg>
